<svg width="17" height="17" viewBox="0 0 17 17" fill="none" xmlns="http://www.w3.org/2000/svg">
<path d="M14.5213 7.51834C14.5675 7.56345 14.6042 7.61737 14.6292 7.6769C14.6543 7.73642 14.6671 7.80036 14.667 7.86493C14.6669 7.92951 14.6539 7.9934 14.6287 8.05286C14.6035 8.11231 14.5666 8.16611 14.5203 8.21109L8.87096 13.717C8.77175 13.8137 8.63869 13.8678 8.50015 13.8678C8.3616 13.8678 8.22854 13.8137 8.12933 13.717L2.48002 8.21109C2.43375 8.16604 2.39698 8.11218 2.37187 8.05269C2.34677 7.9932 2.33383 7.92928 2.33383 7.86471C2.33383 7.80014 2.34677 7.73622 2.37187 7.67673C2.39698 7.61724 2.43375 7.56338 2.48002 7.51834C2.5749 7.42566 2.70227 7.37378 2.8349 7.37378C2.96752 7.37378 3.09489 7.42566 3.18977 7.51834L8.50015 12.6959L13.8126 7.51834C13.9075 7.42598 14.0346 7.3743 14.167 7.3743C14.2994 7.3743 14.4265 7.42598 14.5213 7.51834ZM14.5213 3.26834C14.5675 3.31345 14.6042 3.36737 14.6292 3.4269C14.6543 3.48642 14.6671 3.55036 14.667 3.61493C14.6669 3.67951 14.6539 3.7434 14.6287 3.80286C14.6035 3.86231 14.5666 3.91611 14.5203 3.96109L8.87096 9.46696C8.77175 9.56366 8.63869 9.61778 8.50015 9.61778C8.3616 9.61778 8.22854 9.56366 8.12933 9.46696L2.48002 3.96109C2.43375 3.91604 2.39698 3.86218 2.37187 3.80269C2.34677 3.7432 2.33383 3.67928 2.33383 3.61471C2.33383 3.55014 2.34677 3.48622 2.37187 3.42673C2.39698 3.36724 2.43375 3.31338 2.48002 3.26834C2.5749 3.17566 2.70227 3.12378 2.8349 3.12378C2.96752 3.12378 3.09489 3.17566 3.18977 3.26834L8.50015 8.4459L13.8126 3.26834C13.9075 3.17598 14.0346 3.1243 14.167 3.1243C14.2994 3.1243 14.4265 3.17598 14.5213 3.26834Z" fill="white"/>
</svg>
